<svg xmlns="http://www.w3.org/2000/svg" xmlns:xlink="http://www.w3.org/1999/xlink" width="300" height="300" viewBox="0 0 300 300">
  <defs>
    <clipPath id="clip-Other">
      <rect width="300" height="300"/>
    </clipPath>
  </defs>
  <g id="Other" clip-path="url(#clip-Other)">
    <g id="Group_22" data-name="Group 22">
      <circle id="Ellipse_1" data-name="Ellipse 1" cx="150" cy="150" r="150" fill="#991ae7" opacity="0.2"/>
      <g id="Group_20" data-name="Group 20" transform="translate(70.025 70.026)">
        <path id="Path_137" data-name="Path 137" d="M73.828,15.7C73.134,7.41,66.85.864,58.895.311a184.721,184.721,0,0,0-20.36-.1A190.469,190.469,0,0,0,18.106,2.035a19.786,19.786,0,0,0-16.07,16.07A195.613,195.613,0,0,0,.207,38.535a178.64,178.64,0,0,0,.1,20.36C.867,66.85,7.41,73.134,15.7,73.828c5,.406,11.824.694,21.182.666s16.2-.353,21.188-.8A17.217,17.217,0,0,0,73.7,58.067c.45-4.984.778-11.827.8-21.188s-.266-16.192-.672-21.176Zm84.085,2.4a19.79,19.79,0,0,0-16.07-16.07A195.613,195.613,0,0,0,121.413.207a178.64,178.64,0,0,0-20.36.1C93.1.864,86.814,7.41,86.12,15.7c-.406,5-.694,11.824-.666,21.182s.353,16.2.8,21.188A17.214,17.214,0,0,0,101.881,73.7c5,.45,11.827.778,21.188.8s16.2-.259,21.182-.666c8.29-.694,14.836-6.981,15.392-14.933a183.172,183.172,0,0,0,.1-20.36,190.3,190.3,0,0,0-1.834-20.435ZM73.69,101.875A17.214,17.214,0,0,0,58.067,86.251c-5-.45-11.827-.778-21.188-.8s-16.2.259-21.182.666C7.413,86.814.864,93.1.311,101.053a184.731,184.731,0,0,0-.1,20.36,190.469,190.469,0,0,0,1.828,20.429,19.79,19.79,0,0,0,16.07,16.07,192.571,192.571,0,0,0,20.42,1.828,180.88,180.88,0,0,0,20.36-.1c7.949-.553,14.239-7.1,14.933-15.392.406-4.984.694-11.824.666-21.182s-.344-16.217-.794-21.188Zm85.963-.822c-.553-7.949-7.1-14.239-15.392-14.933-4.984-.406-11.824-.694-21.182-.666s-16.2.353-21.188.8a17.214,17.214,0,0,0-15.623,15.623c-.45,5-.778,11.827-.8,21.188s.259,16.2.666,21.182c.694,8.29,6.984,14.839,14.933,15.392a183.169,183.169,0,0,0,20.36.1,190.008,190.008,0,0,0,20.42-1.828,19.784,19.784,0,0,0,16.08-16.08,192.574,192.574,0,0,0,1.828-20.42A186.787,186.787,0,0,0,159.653,101.053Z" transform="translate(0 0)" fill="#991ae7"/>
      </g>
    </g>
  </g>
</svg>
