<svg xmlns="http://www.w3.org/2000/svg" xmlns:xlink="http://www.w3.org/1999/xlink" width="300" height="300" viewBox="0 0 300 300">
  <defs>
    <clipPath id="clip-Video">
      <rect width="300" height="300"/>
    </clipPath>
  </defs>
  <g id="Video" clip-path="url(#clip-Video)">
    <g id="Group_27" data-name="Group 27">
      <circle id="Ellipse_1" data-name="Ellipse 1" cx="150" cy="150" r="150" fill="#0aaece" opacity="0.2"/>
      <path id="film" d="M126.705,0H33.344A33.384,33.384,0,0,0,0,33.344v93.362a33.384,33.384,0,0,0,33.344,33.344h93.362a33.384,33.384,0,0,0,33.344-33.344V33.344A33.384,33.384,0,0,0,126.705,0Zm6.669,73.356h13.337V86.693H133.374Zm0-13.337V46.681h13.337V60.018ZM120.037,73.356H40.012V13.337h80.024ZM26.675,86.693H13.337V73.356H26.675Zm0-26.675H13.337V46.681H26.675ZM13.337,100.031H26.675v13.337H13.337ZM40.012,86.693h80.024v60.018H40.012Zm93.362,13.337h13.337v13.337H133.374Zm13.337-66.687H133.374V14.564a20.006,20.006,0,0,1,13.337,18.779ZM26.675,14.564V33.344H13.337A20.006,20.006,0,0,1,26.675,14.564ZM13.337,126.705H26.675v18.779a20.006,20.006,0,0,1-13.337-18.779Zm120.037,18.779V126.705h13.337A20.006,20.006,0,0,1,133.374,145.484Z" transform="translate(69.976 69.976)" fill="#0aaece"/>
    </g>
  </g>
</svg>
